<?xml version="1.0" encoding="utf-8"?>
<!-- Svg Vector Icons : http://www.onlinewebfonts.com/icon -->
<!DOCTYPE svg PUBLIC "-//W3C//DTD SVG 1.1//EN" "http://www.w3.org/Graphics/SVG/1.1/DTD/svg11.dtd">
<svg version="1.1" xmlns="http://www.w3.org/2000/svg" xmlns:xlink="http://www.w3.org/1999/xlink" x="0px" y="0px" viewBox="0 0 256 256" enable-background="new 0 0 256 256" xml:space="preserve">
<metadata> Svg Vector Icons : http://www.onlinewebfonts.com/icon </metadata>
<g><g><path fill="#000000" d="M246,120.4"/><path fill="#000000" d="M149.9,128h-2.7c0,18.2-7.4,34.7-19.3,46.6c-11.9,11.9-28.4,19.3-46.6,19.3s-34.7-7.4-46.6-19.3c-11.9-11.9-19.3-28.4-19.3-46.6c0-18.2,7.4-34.7,19.3-46.6c11.9-11.9,28.4-19.3,46.6-19.3c18.2,0,34.7,7.4,46.6,19.3c11.9,11.9,19.3,28.4,19.3,46.6H149.9h2.7c0-39.4-31.9-71.3-71.3-71.3C41.9,56.7,10,88.6,10,128c0,39.4,31.9,71.3,71.3,71.3c39.4,0,71.3-31.9,71.3-71.3H149.9L149.9,128z"/><path fill="#000000" d="M104.1,111.8h-2.7c0,5.5-2.2,10.6-5.9,14.2c-3.7,3.7-8.7,5.9-14.3,5.9c-5.6,0-10.6-2.3-14.2-5.9c-3.7-3.7-5.9-8.7-5.9-14.2c0-5.6,2.2-10.6,5.9-14.3c3.7-3.7,8.7-5.9,14.2-5.9c5.6,0,10.6,2.2,14.3,5.9c3.7,3.7,5.9,8.7,5.9,14.3H104.1h2.7c0-14.1-11.4-25.6-25.6-25.6c-14.1,0-25.6,11.4-25.6,25.6s11.4,25.6,25.6,25.6c14.1,0,25.6-11.4,25.6-25.6H104.1L104.1,111.8z"/><path fill="#000000" d="M29,172.4c1.8-2.3,3.7-4.5,5.7-6.6c11.9-11.9,28.4-19.3,46.6-19.3c18.2,0,34.7,7.4,46.6,19.3c2,2,4,4.2,5.7,6.6c1.2-1.4,2.3-2.9,3.4-4.4c-13.1-16.4-33.2-26.9-55.7-26.9c-22.6,0-42.7,10.5-55.7,26.9C26.6,169.5,27.8,170.9,29,172.4L29,172.4z"/></g></g>
</svg>